<svg width="728" height="728" viewBox="0 0 728 728" fill="none" xmlns="http://www.w3.org/2000/svg">
<g filter="url(#filter0_d_4_33)">
<circle cx="364" cy="360" r="360" fill="#0F0F0F"/>
</g>
<g filter="url(#filter1_d_4_33)">
<path d="M363.376 130.436C389.332 130.436 415.023 134.968 440.45 144.034C465.876 152.566 488.654 165.897 508.783 184.028C529.442 201.625 546.128 224.288 558.841 252.017C571.554 279.746 577.911 312.541 577.911 350.402V364.8C577.911 403.194 571.29 436.523 558.047 464.785C545.333 493.047 528.647 516.511 507.988 535.174C487.329 553.305 463.757 566.903 437.271 575.968C411.315 585.034 385.094 589.566 358.608 589.566C333.182 589.566 307.491 585.3 281.535 576.768C256.108 567.703 233.33 554.372 213.201 536.774C193.072 518.644 176.651 495.714 163.937 467.985C151.224 440.255 144.868 407.727 144.868 370.399V355.202C144.868 316.808 151.224 283.479 163.937 255.217C177.18 226.954 194.131 203.758 214.79 185.627C235.449 166.964 258.757 153.099 284.713 144.034C311.199 134.968 337.42 130.436 363.376 130.436ZM464.287 337.604C464.287 323.207 461.108 310.408 454.752 299.21C448.925 288.012 440.979 278.68 430.915 271.214C421.38 263.216 410.256 257.35 397.542 253.617C385.359 249.884 372.911 248.018 360.197 248.018C348.014 248.018 335.83 249.884 323.647 253.617C311.464 256.817 300.339 262.149 290.275 269.615C280.74 277.08 272.794 286.412 266.438 297.61C260.611 308.809 257.697 322.14 257.697 337.604V382.398C257.697 397.329 260.611 410.393 266.438 421.592C272.794 432.79 280.74 442.122 290.275 449.587C300.339 457.053 311.464 462.652 323.647 466.385C336.36 470.118 349.338 471.984 362.581 471.984C374.765 471.984 386.948 470.384 399.132 467.185C411.315 463.452 422.174 457.853 431.709 450.387C441.244 442.922 448.925 433.59 454.752 422.392C461.108 411.193 464.287 397.862 464.287 382.398V337.604Z" fill="#1C6FFF"/>
</g>
<ellipse cx="204.866" cy="198.262" rx="86.087" ry="88.6957" fill="white"/>
<defs>
<filter id="filter0_d_4_33" x="0" y="0" width="728" height="728" filterUnits="userSpaceOnUse" color-interpolation-filters="sRGB">
<feFlood flood-opacity="0" result="BackgroundImageFix"/>
<feColorMatrix in="SourceAlpha" type="matrix" values="0 0 0 0 0 0 0 0 0 0 0 0 0 0 0 0 0 0 127 0" result="hardAlpha"/>
<feOffset dy="4"/>
<feGaussianBlur stdDeviation="2"/>
<feComposite in2="hardAlpha" operator="out"/>
<feColorMatrix type="matrix" values="0 0 0 0 0 0 0 0 0 0 0 0 0 0 0 0 0 0 0.25 0"/>
<feBlend mode="normal" in2="BackgroundImageFix" result="effect1_dropShadow_4_33"/>
<feBlend mode="normal" in="SourceGraphic" in2="effect1_dropShadow_4_33" result="shape"/>
</filter>
<filter id="filter1_d_4_33" x="140.868" y="130.436" width="441.043" height="467.13" filterUnits="userSpaceOnUse" color-interpolation-filters="sRGB">
<feFlood flood-opacity="0" result="BackgroundImageFix"/>
<feColorMatrix in="SourceAlpha" type="matrix" values="0 0 0 0 0 0 0 0 0 0 0 0 0 0 0 0 0 0 127 0" result="hardAlpha"/>
<feOffset dy="4"/>
<feGaussianBlur stdDeviation="2"/>
<feComposite in2="hardAlpha" operator="out"/>
<feColorMatrix type="matrix" values="0 0 0 0 0 0 0 0 0 0 0 0 0 0 0 0 0 0 0.1 0"/>
<feBlend mode="normal" in2="BackgroundImageFix" result="effect1_dropShadow_4_33"/>
<feBlend mode="normal" in="SourceGraphic" in2="effect1_dropShadow_4_33" result="shape"/>
</filter>
</defs>
</svg>
